HIERARCHY
ROOT Hips
{
	OFFSET 0.000000 0.000000 0.000000 
	CHANNELS 6 Xposition Yposition Zposition Yrotation Zrotation Xrotation 
	JOINT Lumbar
	{
		OFFSET 0.000000 0.000000 0.000000 
		CHANNELS 3 Zrotation Xrotation Yrotation
		JOINT Neck
		{
			OFFSET 0.000000 0.445665 0.000000 
			CHANNELS 3 Zrotation Xrotation Yrotation
			End Site
			{
				OFFSET 0.000000 0.227535 0.000000 
			}
		}
		JOINT RightShoulder
		{
			OFFSET 0.019635 0.377685 0.194865 
			CHANNELS 3 Zrotation Xrotation Yrotation
			JOINT RightElbow
			{
				OFFSET 0.000000 -0.243375 0.000000 
				CHANNELS 2 Zrotation Yrotation
				JOINT RightWrist
				{
					OFFSET 0.000000 -0.264825 0.000000 
					CHANNELS 2 Zrotation Xrotation
					End Site
					{
						OFFSET 0.006600 -0.176220 0.000990 
					}
				}
			}
		}
		JOINT LeftShoulder
		{
			OFFSET 0.019635 0.377685 -0.194865 
			CHANNELS 3 Zrotation Xrotation Yrotation
			JOINT LeftElbow
			{
				OFFSET 0.000000 -0.243375 0.000000 
				CHANNELS 2 Zrotation Yrotation
				JOINT LeftWrist
				{
					OFFSET 0.000000 -0.264825 0.000000 
					CHANNELS 2 Zrotation Xrotation
					End Site
					{
						OFFSET 0.006600 -0.176220 -0.000990 
					}
				}
			}
		}
	}
	JOINT RightHip
	{
		OFFSET 0.052140 -0.069960 0.075570 
		CHANNELS 3 Zrotation Xrotation Yrotation
		JOINT RightKnee
		{
			OFFSET 0.000000 -0.402270 0.000000 
			CHANNELS 1 Zrotation
			JOINT RightAnkle
			{
				OFFSET 0.000000 -0.404085 0.000000 
				CHANNELS 3 Zrotation Xrotation Yrotation
				End Site
				{
					OFFSET 0.204105 -0.089430 0.008415 
				}
			}
		}
	}
	JOINT LeftHip
	{
		OFFSET 0.052140 -0.069960 -0.075570 
		CHANNELS 3 Zrotation Xrotation Yrotation
		JOINT LeftKnee
		{
			OFFSET 0.000000 -0.402270 0.000000 
			CHANNELS 1 Zrotation
			JOINT LeftAnkle
			{
				OFFSET 0.000000 -0.404085 0.000000 
				CHANNELS 3 Zrotation Xrotation Yrotation
				End Site
				{
					OFFSET 0.204105 -0.089430 -0.008415 
				}
			}
		}
	}
}
MOTION
Frames: 22
Frame Time: 0.02
-0.32384 -0.18749 0.14473 19.26369 -39.30814 -4.96513 8.29881 4.65778 1.02486 1.65266 -5.27035 -2.119 28.99579 -21.34459 18.42201 77.10758 89.57688 -11.90743 -6.16998 13.41104 26.5973 -13.62553 81.51638 -83.6867 -9.28395 3.82343 100.999 -10.34254 -7.19154 -63.93943 -7.24817 -1.97539 -3.21067 101.56948 11.70752 2.98861 -64.32017 -8.02212 0.62562 2.61895
-0.31826 -0.17762 0.1442 19.4197 -39.13335 -4.81963 9.10785 4.67319 0.89631 2.10832 -4.96594 -2.11903 30.74621 -21.04603 19.38551 78.69975 90.94832 -12.43192 -6.42818 14.77836 26.45355 -14.82037 82.90358 -83.809 -9.67367 4.18362 99.05531 -10.22982 -7.59908 -62.02509 -7.2844 -1.95147 -3.20275 99.5296 11.81018 3.51215 -62.21816 -8.09979 0.5784 2.5966
-0.31223 -0.16796 0.14363 19.59573 -38.83438 -4.65718 9.9748 4.68819 0.77221 2.56261 -4.65961 -2.11905 32.60861 -20.80193 20.46379 79.84211 92.24235 -13.02696 -6.69134 16.39387 26.28446 -16.16122 84.25696 -84.05891 -10.29949 4.70172 96.97509 -10.10866 -8.00359 -60.11196 -7.31885 -1.92428 -3.19465 97.33143 11.96801 4.13774 -60.09253 -8.18098 0.52439 2.57019
-0.30635 -0.15823 0.14307 19.75981 -38.58168 -4.50397 10.81879 4.705 0.64322 3.01612 -4.35888 -2.11907 34.4176 -20.5228 21.49582 81.1178 93.5233 -13.55503 -6.94485 17.91351 26.10942 -17.43751 85.57863 -84.23789 -10.79041 5.14367 94.94778 -9.97708 -8.384 -58.20081 -7.35359 -1.90184 -3.18808 95.19557 12.09568 4.70433 -57.9808 -8.25966 0.47424 2.54617
-0.30068 -0.14837 0.14256 19.93787 -38.36661 -4.34373 11.64926 4.71569 0.52652 3.4786 -4.03633 -2.11909 36.2497 -20.28667 22.50712 82.68817 95.02555 -14.23307 -7.22793 19.37026 26.00866 -18.71081 87.1015 -84.46637 -11.39539 5.6074 92.95204 -9.90395 -8.86933 -56.27628 -7.39081 -1.86607 -3.17562 93.09281 12.24242 5.32237 -55.85181 -8.34239 0.42086 2.51991
-0.29447 -0.13886 0.14193 20.09051 -38.04594 -4.19414 12.52279 4.73849 0.38495 3.91814 -3.75948 -2.11911 38.05011 -19.97534 23.58591 83.54492 96.03762 -14.61346 -7.44864 21.00966 25.74814 -20.02148 88.19684 -84.62364 -11.81758 6.05729 90.86205 -9.70923 -9.13881 -54.38265 -7.42218 -1.8568 -3.17513 90.88789 12.36362 5.85799 -53.75681 -8.41732 0.37268 2.49734
-0.28695 -0.13015 0.14102 20.17209 -37.46078 -4.0803 13.4833 4.79816 0.17669 4.32806 -3.60945 -2.11913 39.80019 -19.42812 24.83809 82.48421 95.76829 -14.16786 -7.52864 23.14002 25.03872 -21.42025 88.11709 -84.55808 -11.70523 6.49036 88.53009 -9.16218 -8.78243 -52.55362 -7.43967 -1.92561 -3.20976 88.42155 12.3986 6.14266 -51.73565 -8.47143 0.33932 2.48561
-0.2789 -0.1218 0.13999 20.22647 -36.77484 -3.9775 14.48779 4.86939 -0.05733 4.70832 -3.50566 -2.11914 41.50045 -18.80663 26.1501 80.73431 94.99867 -13.41803 -7.5408 25.43461 24.17237 -22.84646 87.61104 -84.41653 -11.39664 6.89428 86.11176 -8.49637 -8.21394 -50.75994 -7.45098 -2.02049 -3.25609 85.86226 12.40657 6.34032 -49.755 -8.51723 0.31168 2.4778
-0.27106 -0.11335 0.13901 20.29039 -36.13804 -3.86829 15.48391 4.93304 -0.28155 5.0808 -3.38091 -2.11916 43.18169 -18.22796 27.42559 79.33364 94.41864 -12.79813 -7.56255 27.62449 23.38592 -24.24739 87.29817 -84.30701 -11.15979 7.27106 83.74349 -7.8974 -7.76344 -48.96308 -7.46391 -2.10068 -3.2957 83.35795 12.42881 6.57774 -47.77232 -8.56587 0.28212 2.46837
-0.26331 -0.10464 0.13805 20.36681 -35.48316 -3.76423 16.43447 5.00634 -0.49755 5.54463 -3.256 -2.11918 45.04737 -17.61028 28.7483 77.75349 93.98686 -12.2142 -7.67182 29.95677 22.55974 -25.71128 86.97549 -84.21155 -11.00318 7.81921 81.32409 -7.24455 -7.22446 -47.11026 -7.48181 -2.19256 -3.34113 80.79341 12.44504 6.81995 -45.71771 -8.61881 0.24925 2.45799
-0.25527 -0.09656 0.13702 20.41067 -34.8431 -3.65245 17.48781 5.06248 -0.73689 5.80911 -3.14224 -2.11919 46.50988 -17.05881 29.98063 76.40403 93.1394 -11.48429 -7.58545 32.01979 21.78268 -27.04392 86.58628 -84.0682 -10.63171 8.00724 78.9933 -6.67488 -6.81596 -45.38439 -7.48786 -2.26659 -3.37736 78.33536 12.46602 7.02746 -43.82525 -8.66048 0.225 2.4507
-0.24659 -0.09002 0.13582 20.36927 -34.27481 -3.51541 18.82954 5.06695 -1.03385 5.54789 -3.04963 -2.11922 46.91977 -16.67981 30.98851 75.73632 91.17145 -10.40765 -6.95133 33.36903 21.15157 -28.04606 85.99955 -83.80156 -9.69781 7.157 76.9235 -6.37289 -6.85093 -43.98366 -7.46322 -2.28231 -3.3838 76.18781 12.51208 7.18363 -42.35137 -8.67565 0.22087 2.45009
-0.23766 -0.08412 0.13456 20.29623 -33.72495 -3.37058 20.27014 5.05403 -1.35342 5.08396 -2.96624 -2.11925 46.91667 -16.37503 31.89545 75.34955 88.82007 -9.19805 -6.12717 34.42706 20.58076 -28.90672 85.38315 -83.49059 -8.55684 5.95382 74.94835 -6.1575 -7.01981 -42.71288 -7.42677 -2.27955 -3.38077 74.15365 12.56266 7.3032 -41.04352 -8.6793 0.22568 2.45263
-0.22885 -0.07798 0.13332 20.23901 -33.16257 -3.23021 21.65502 5.05008 -1.66315 4.70111 -2.8777 -2.11928 47.06939 -16.05475 32.82182 74.91824 86.70745 -8.06026 -5.40575 35.5716 20.0008 -29.80667 84.85749 -83.20556 -7.52031 4.94522 72.93264 -5.89613 -7.10551 -41.39324 -7.39543 -2.28715 -3.38315 72.07122 12.60728 7.4236 -39.67175 -8.68647 0.22797 2.45432
-0.21998 -0.07163 0.1321 20.17512 -32.61188 -3.08623 23.08663 5.04211 -1.97235 4.36314 -2.7953 -2.11931 47.35215 -15.65509 33.86158 74.11337 84.30679 -6.86205 -4.6127 36.91652 19.33797 -30.81521 83.98927 -82.89326 -6.43199 3.79248 70.89989 -5.6569 -7.27357 -40.03063 -7.36502 -2.28788 -3.38158 69.96749 12.66713 7.60711 -38.25057 -8.70043 0.22401 2.45372
-0.21118 -0.06586 0.13084 20.11754 -32.0453 -2.94788 24.44428 5.03812 -2.28714 3.88481 -2.70108 -2.11934 47.27014 -15.43917 34.6409 74.16013 82.41932 -5.76428 -3.9248 37.77149 18.86448 -31.56111 83.83495 -82.62851 -5.4067 2.85512 68.93072 -5.39579 -7.31028 -38.78936 -7.32984 -2.29758 -3.38547 67.94154 12.69713 7.65242 -36.97387 -8.69782 0.23501 2.45857
-0.20254 -0.06147 0.12948 20.08891 -31.40659 -2.82609 25.56731 5.05032 -2.61616 3.06089 -2.57755 -2.11936 46.25203 -15.71409 34.72098 76.51232 82.06493 -4.95981 -3.57178 37.35456 18.89689 -31.63694 85.64454 -82.5034 -4.59202 2.60987 67.07581 -5.03503 -6.90215 -37.83939 -7.28546 -2.34179 -3.40985 66.05793 12.64035 7.31955 -36.03351 -8.65072 0.28605 2.47767
-0.194 -0.05766 0.12809 20.06714 -30.75552 -2.71027 26.6122 5.0669 -2.94884 2.10419 -2.44079 -2.11939 44.88746 -16.17107 34.54321 79.71027 82.23879 -4.26626 -3.33141 36.45241 19.11891 -31.44936 88.17759 -82.42847 -3.85206 2.59104 65.28873 -4.6529 -6.36604 -37.00926 -7.23657 -2.3947 -3.43948 64.25717 12.5544 6.85131 -35.23722 -8.58775 0.35153 2.50205
-0.18546 -0.05363 0.12674 20.0399 -30.12713 -2.59231 27.6983 5.0808 -3.27717 1.21352 -2.30589 -2.11942 43.7006 -16.54445 34.48602 82.51099 82.15858 -3.53349 -3.04168 35.76457 19.25641 -31.36868 90.39237 -82.33258 -3.08738 2.4622 63.49667 -4.29341 -5.92382 -36.1317 -7.18899 -2.43988 -3.4645 62.44875 12.48374 6.44785 -34.38856 -8.53298 0.4099 2.52407
-0.17669 -0.04944 0.1253 20.02151 -29.43021 -2.47195 28.7689 5.097 -3.61863 0.29211 -2.18786 -2.11944 42.41137 -16.92547 34.41015 85.37929 82.12313 -2.74599 -2.7394 35.09095 19.38918 -31.33703 92.56523 -82.22737 -2.27409 2.35346 61.60066 -3.88367 -5.34129 -35.22833 -7.14389 -2.49976 -3.49823 60.5191 12.40354 6.02524 -33.48837 -8.4733 0.47137 2.54628
-0.16845 -0.04571 0.12403 19.98669 -28.86917 -2.35777 29.84558 5.1097 -3.93207 -0.59458 -2.03269 -2.11947 41.26146 -17.33102 34.31431 88.29921 82.12577 -2.10396 -2.49018 34.27865 19.57578 -31.1427 94.99292 -82.15398 -1.58535 2.25818 59.93362 -3.57069 -5.01138 -34.40635 -7.09298 -2.5321 -3.5156 58.85828 12.33764 5.61593 -32.73008 -8.42066 0.52912 2.56902
-0.16159 -0.04305 0.12319 19.90524 -28.71915 -2.26227 31.01219 5.11152 -4.17748 -1.34803 -1.76723 -2.11948 40.55733 -17.77483 34.21755 91.19617 82.10008 -1.80858 -2.38149 33.18281 19.86664 -30.56298 97.98829 -82.15745 -1.19938 2.17352 58.90414 -3.54551 -5.47881 -33.77221 -7.0249 -2.47935 -3.48288 57.93782 12.30568 5.23087 -32.3075 -8.38776 0.57803 2.59446
